<?xml version="1.0" encoding="iso-8859-1"?>
<!-- Generator: Adobe Illustrator 18.0.0, SVG Export Plug-In . SVG Version: 6.00 Build 0)  -->
<!DOCTYPE svg PUBLIC "-//W3C//DTD SVG 1.1//EN" "http://www.w3.org/Graphics/SVG/1.1/DTD/svg11.dtd">
<svg version="1.1" id="Capa_1" xmlns="http://www.w3.org/2000/svg" xmlns:xlink="http://www.w3.org/1999/xlink" x="0px" y="0px"
	 viewBox="0 0 133.715 133.715" style="enable-background:new 0 0 133.715 133.715;" xml:space="preserve">
<g>
	<polygon style="fill:#FFFFFF;" points="63.858,44.357 63.858,14.357 46.206,14.357 37.731,44.357 	"/>
	<polygon style="fill:#FF8898;" points="86.039,14.357 69.858,14.357 69.858,44.357 94.515,44.357 	"/>
	<polygon style="fill:#FF8898;" points="39.971,14.357 22.513,14.357 7.531,44.357 31.496,44.357 	"/>
	<polygon style="fill:#FFFFFF;" points="125.961,44.357 111.471,14.357 92.274,14.357 100.749,44.357 	"/>
	<path style="fill:#94D5D2;" d="M45.858,76.582c-7.72,0-14,6.179-14,13.774v29.001h28V90.356
		C59.858,82.761,53.577,76.582,45.858,76.582z"/>
	<rect x="83.858" y="80.357" style="fill:#94D5D2;" width="27" height="27"/>
	<path style="fill:#FFDAC6;" d="M99.2,56.283c-3.038,5.704-8.998,9.415-16.171,9.415c-7.173,0-13.134-3.711-16.172-9.415
		c-3.038,5.704-8.999,9.415-16.17,9.415c-7.173,0-13.134-3.711-16.172-9.415c-3.039,5.704-9,9.415-16.173,9.415
		c-1.562,0-3.056-0.195-4.485-0.529v54.188h12V90.356c0-10.903,8.972-19.774,20-19.774c11.028,0,20,8.871,20,19.774v29.001h55
		V64.924c-1.719,0.503-3.557,0.774-5.484,0.774C108.2,65.698,102.238,61.987,99.2,56.283z M116.858,77.357v33c0,1.657-1.343,3-3,3
		h-33c-1.657,0-3-1.343-3-3v-33c0-1.657,1.343-3,3-3h33C115.515,74.357,116.858,75.7,116.858,77.357z"/>
	<path style="fill:#FFFFFF;" d="M30.349,50.357H6.338c1.272,5.49,6.01,9.341,12.004,9.341
		C24.338,59.698,29.077,55.848,30.349,50.357z"/>
	<path style="fill:#FF8898;" d="M50.687,59.698c5.994,0,10.732-3.851,12.003-9.341H38.682
		C39.954,55.848,44.693,59.698,50.687,59.698z"/>
	<path style="fill:#FFFFFF;" d="M83.029,59.698c5.994,0,10.732-3.851,12.004-9.341H71.025
		C72.296,55.848,77.035,59.698,83.029,59.698z"/>
	<path style="fill:#FF8898;" d="M115.373,59.698c5.994,0,10.732-3.851,12.004-9.341h-24.01
		C104.639,55.848,109.378,59.698,115.373,59.698z"/>
	<path style="fill:#586065;" d="M133.121,45.387L115.236,8.357H18.803L0.317,45.373c-0.278,0.557-0.367,1.158-0.291,1.732
		c-0.007,0.084-0.025,0.165-0.025,0.252c0,6.495,3.045,11.994,7.857,15.23v62.769h119V61.851c4.226-3.301,6.857-8.464,6.857-14.493
		c0-0.563-0.165-1.085-0.434-1.535C133.235,45.676,133.19,45.529,133.121,45.387z M111.471,14.357l14.49,30h-25.212l-8.476-30
		H111.471z M69.858,14.357h16.182l8.476,30H69.858V14.357z M95.033,50.357c-1.271,5.49-6.01,9.341-12.004,9.341
		c-5.994,0-10.733-3.851-12.005-9.341H95.033z M63.858,14.357v30H37.731l8.476-30H63.858z M62.691,50.357
		c-1.272,5.49-6.01,9.341-12.003,9.341c-5.995,0-10.733-3.851-12.005-9.341H62.691z M22.513,14.357h17.458l-8.476,30H7.531
		L22.513,14.357z M6.338,50.357h24.011c-1.272,5.49-6.011,9.341-12.006,9.341C12.348,59.698,7.61,55.848,6.338,50.357z
		 M59.858,119.357h-28V90.356c0-7.596,6.28-13.774,14-13.774c7.72,0,14,6.179,14,13.774V119.357z M120.858,119.357h-55V90.356
		c0-10.903-8.972-19.774-20-19.774c-11.028,0-20,8.871-20,19.774v29.001h-12V65.169c1.429,0.334,2.923,0.529,4.485,0.529
		c7.173,0,13.134-3.711,16.173-9.415c3.038,5.704,8.999,9.415,16.172,9.415c7.172,0,13.133-3.711,16.17-9.415
		c3.038,5.704,8.999,9.415,16.172,9.415c7.173,0,13.133-3.711,16.171-9.415c3.038,5.704,9,9.415,16.173,9.415
		c1.928,0,3.766-0.271,5.484-0.774V119.357z M115.373,59.698c-5.995,0-10.734-3.851-12.006-9.341h24.01
		C126.106,55.848,121.367,59.698,115.373,59.698z"/>
	<path style="fill:#586065;" d="M80.858,74.357c-1.657,0-3,1.343-3,3v33c0,1.657,1.343,3,3,3h33c1.657,0,3-1.343,3-3v-33
		c0-1.657-1.343-3-3-3H80.858z M110.858,107.357h-27v-27h27V107.357z"/>
</g>
<g>
</g>
<g>
</g>
<g>
</g>
<g>
</g>
<g>
</g>
<g>
</g>
<g>
</g>
<g>
</g>
<g>
</g>
<g>
</g>
<g>
</g>
<g>
</g>
<g>
</g>
<g>
</g>
<g>
</g>
</svg>
